<svg version="1.1" viewBox="0 0 400 127.76" xmlns="http://www.w3.org/2000/svg">
 <g transform="translate(1528 -767.34)">
  <g id="BR_x5F_Wordmark_x5F_Black" transform="matrix(.099796 0 0 .099796 -1563.9 731.42)">
   <rect class="st0" x="2e3" y="400" width="2328" height="1200" fill="#ffffff"/>
   <g id="report_3_">
    <path d="m2830.2 1050h-144.2v400h60v-170h84.1l55.8-58.1v-114.8zm-84.2 60h59.3l20.7 21.9v65.1l-20.7 22.9h-59.3z"/>
    <polygon points="2453 1389.5 2453 1450 2515 1450 2633 1450 2633 1390 2513 1390 2513 1280 2613 1280 2613 1220 2513 1220 2513 1110 2633 1110 2633 1050 2515 1050 2453 1050 2453 1109.5 2453 1219.5 2453 1279.5"/>
    <polygon points="3603 1110 3603 1050 3433 1050 3433 1110 3487 1110 3487 1450 3547 1450 3547 1110"/>
    <path d="m3077.9 1050h-84.8l-59.1 57.1v284.8l59.1 58.1h84.8l56.1-58.1v-284.8zm-3.9 317.2-20.8 22.8h-35.3l-23.9-22.9v-235.2l23.9-21.9h35.3l20.8 21.8v187.7z"/>
    <path d="m2310.5 1280 30.5 170h60l-34.6-193.5 33.6-34.1v-114.9l-56.6-57.5h-143.4v400h60v-170m0-170h58.6l21.4 22.4v65.1l-21.4 22.5h-58.6z"/>
    <path d="m3297.5 1280 30.5 170h60l-34.6-193.5 33.6-34.1v-114.9l-56.6-57.5h-143.4v400h60v-170m0-170h58.6l21.4 22.4v65.1l-21.4 22.5h-58.6z"/>
   </g>
   <g id="bleacher_3_">
    <path d="m2343.4 550h-143.4v400h143.4l56.6-58.1v-114.8l-27.6-27.6 27.6-27.6v-114.8zm-83.4 60h58.6l21.4 21.9v65.1l-21.4 22.9h-58.6zm0 170h58.6l21.4 21.9v65.1l-21.4 22.9h-58.6z"/>
    <polygon points="3442 950 3502 950 3502 780 3582 780 3582 950 3642 950 3642 779.5 3642 719.5 3642 550 3582 550 3582 720 3502 720 3502 550 3442 550 3442 719.5 3442 779.5"/>
    <polygon points="2672 889.5 2672 950 2733.5 950 2852 950 2852 890 2732 890 2732 780 2832 780 2832 720 2732 720 2732 610 2852 610 2852 550 2733.5 550 2672 550 2672 609.5 2672 719.5 2672 779.5"/>
    <polygon points="3696 889.5 3696 950 3757.8 950 3876 950 3876 890 3756 890 3756 780 3856 780 3856 720 3756 720 3756 610 3876 610 3876 550 3757.8 550 3696 550 3696 609.5 3696 719.5 3696 779.5"/>
    <polygon points="2623 890 2513 890 2513 550 2453 550 2453 889.5 2453 950 2514 950 2623 950"/>
    <polygon points="3189 615.1 3189 639 3189 860 3189 883.9 3189 891.9 3248.1 950 3255.5 950 3289.1 950 3292 950 3320.5 950 3332.9 950 3389 891.9 3389 889.5 3389 860 3389 820 3329 820 3329 867.2 3308.2 890 3272.9 890 3249 867.1 3249 631.9 3272.9 610 3308.2 610 3329 631.8 3329 680 3389 680 3389 639 3389 609.5 3389 607.1 3332.9 550 3320.5 550 3292 550 3289.1 550 3260.5 550 3248.1 550 3189 607.1"/>
    <path d="m3084 950h60l-70.5-400h-109l-70.5 400h60l19.4-110h91.2zm-100-170 30-170h10.1l30 170z"/>
    <path d="m4038.5 780 30.5 170h60l-34.6-193.5 33.6-34.1v-114.9l-56.6-57.5h-143.4v400h60v-170m0-170h58.6l21.4 22.4v65.1l-21.4 22.5h-58.6z"/>
   </g>
   <rect x="400" y="400" width="1600" height="1200"/>
   <g fill="#ffffff">
    <path class="st1" d="m884.9 600h-284.9v800h284.9l115.1-115.1v-229.7l-55.1-55.1 55.1-55.1v-229.9zm-164.9 340v-220h115.1l44.9 44.9v130.3l-44.9 44.8m0 120 44.9 44.9v130.3l-44.9 44.9h-115.1v-220"/>
    <path class="st1" d="m1815 1400-99.4-370.8 84.4-84.4v-229.7l-115.1-115.1h-284.9v800h120v-340h83.9l91.1 340zm-295-680h115.1l44.9 44.9v130.3l-44.9 44.9h-115.1z"/>
    <polygon class="st1" points="1100 1029.3 1100 1170.7 1300 970.7 1300 829.3"/>
   </g>
  </g>
 </g>
</svg>
