<svg xmlns="http://www.w3.org/2000/svg" viewBox="0 0 70.555555 30.108717" height="106.68" width="250">
 <g transform="matrix(.75679 0 0 .75679 -.047147 -.062389)">
  <path d="m77.729 0.5-0.352 1.9519-57.502-0.001c-1.214-0.5832-2.561-0.8908-3.907-0.8908-2.4123 0-4.6824 0.94192-6.3923 2.6518-0.2033 0.2036-0.3995 0.4195-0.5829 0.6417-0.3697 0.4477-0.6971 0.9324-0.974 1.4415-0.1397 0.2568-0.2682 0.5231-0.3814 0.7909-0.4731 1.1162-0.7126 2.3001-0.7126 3.519 0 1.2185 0.23989 2.4021 0.71261 3.5183 0.051153 0.12241 1.1402 2.8254 2.2154 5.4956h-5.7923l-3.5606 19.92h15.261l0.35172-1.9445 66.845-0.0021 6.3835-6.2833 1.982-11.747-1.426-1.486 3.088-17.577z" fill="#c9cfd2"/>
  <path d="m78.443 1.3549-0.35207 1.9509h-58.415c-1.145-0.5832-2.423-0.8909-3.708-0.8909-2.184 0-4.2393 0.85266-5.7877 2.4014-0.1836 0.1842-0.3614 0.3796-0.5279 0.5814-0.3348 0.4053-0.6315 0.8449-0.8823 1.3056-0.1263 0.2325-0.2427 0.4734-0.3454 0.7162-0.4279 1.01-0.6448 2.0817-0.6448 3.1855 0 1.1031 0.21696 2.1745 0.64488 3.1845 0.058914 0.1397 1.6291 4.0382 2.6942 6.6841h-6.3422l-3.2551 18.21h13.526l0.315-1.788 67.131-0.003 6.065-6.063 1.849-10.986-1.429-1.488 2.987-17.001z" fill="#231f20"/>
  <path d="m285.16 13.893-1.248 6.8887h-31.279l-2.5391 14.01h-6.6621l-0.89844 5.1152h6.6348l-2.541 14.006h31.137l-1.2461 6.8906h29.896l0.89844-5.1152h-24.672l1.5684-8.6641h24.625l0.9004-5.1152h-29.797l-1.248 6.8906h-25.936l4.1504-22.902h26.082l-1.248 6.8906h29.598l0.89844-5.1152h-24.371l1.5684-8.6641h24.326l0.89844-5.1152h-29.496zm-228.71 2.994c-11.394 0-20.631 9.2378-20.631 20.633s9.2371 20.631 20.631 20.631c7.9175 0 14.793-4.4602 18.252-11.004h-2.3867l-0.15234-1.4023h-3.8887l-0.85938 1.3867h-3.3691l-0.07813-1.3867h-3.8027l-0.92578 1.4023h-5.3906c-1.665 0-3.1899-1.0243-3.4512-2.5918-0.12501-0.7375-0.11679-1.4809 0.002-2.1934l-1.3594 4.7832-2.9688 0.002s-1.5671-3.7866-1.9434-4.6953c-0.26376 0.96125-1.291 4.6953-1.291 4.6953h-2.668l2.0684-7.5332h-0.91602l0.62695-2.2207h3.3379l2.3301 5.4824 0.92773-3.2676-0.92188 0.0039 0.62891-2.2324 3.5605 0.01367-1.0371 3.6035c0.63625-1.8388 2.6494-3.6309 5.1406-3.6309l4.0039 0.01367-0.93359 3.3945h-2.5996s0.20857-0.74812 0.30859-1.1094l-0.5918-0.01172c-1.415 0-2.8066 2.1208-2.8066 3.582 0 1.4613 1.1801 1.7461 1.4863 1.7461l2.918 0.0098 3.5449-5.3789-0.82617-0.0098 0.61523-2.2227h5.4297l0.37109 6.4238 2.6426-4.1914h-0.83008l0.63086-2.2324h5.3516l0.59766 8.6992c1.1912-2.6075 1.8555-5.5061 1.8555-8.5586 0-11.395-9.2378-20.633-20.633-20.633zm-32.367 64.734-0.89844 5.1152h24.672l-1.5684 8.6621h-24.625l-0.89844 5.1152h29.797l1.2461-6.8887h25.938l-4.1523 22.902h-26.08l1.2461-6.8906h-29.598l-0.89844 5.1152h24.371l-1.5684 8.6641h-24.324l-0.89844 5.1152h29.496l1.2461-6.8887h31.277l2.541-14.01h8.1387l0.89844-5.1152h-8.1094l2.5391-14.008h-31.135l1.2461-6.8887h-29.898z" transform="matrix(.28222 0 0 .28222 0 -.0000021532)" fill="#005eb8"/>
  <path d="m87.209 20.057-7.3516 41.83h0.375 5.6602c0.6875 0 1.2716-0.16374 1.7129-0.5 0.44-0.33626 0.73742-0.845 0.85742-1.5312l4.9004-27.906-0.77539 29.938h7.707c1.1212 0 1.8714-0.37016 2.3789-1.1602 0.16877-0.26249 0.31093-0.57289 0.42969-0.93164l9.2031-27.846-5.2598 29.938h6.0371c0.68751 0 1.2677-0.16374 1.709-0.5 0.44125-0.33626 0.74133-0.845 0.86133-1.5312l6.9902-39.799h-13.146l-9.7402 29.461 0.7168-27.428c0-1.3162-0.59766-2.0332-1.9727-2.0332h-11.293zm68.479 0-7.3496 41.83h6.9316c0.34374 0 0.66172-0.04056 0.94922-0.12305 0.28626-0.08376 0.54172-0.20944 0.76172-0.37695 0.44125-0.33626 0.73937-0.845 0.85937-1.5312l2.3301-13.088h3.0469l1.375 7.5605 1.373 7.5586h7.5898c0.73125 0 1.2252-0.31631 1.4726-0.83008 0.15502-0.32499 0.23314-0.71367 0.14063-1.2012l-2.8066-14.4 0.95508-0.73633 3.166-2.4316 3.1074-17.748-4.3008-4.4824h-19.602zm35.139 0-5.918 4.4824-5.7969 32.865 4.3027 4.4824h13.564l5.916-4.4824 1.5547-8.8438c0.11873-0.6575 0.0438-1.1641-0.23242-1.5078-0.13876-0.17125-0.32642-0.30312-0.56641-0.39062-0.23999-0.08748-0.5293-0.13281-0.87305-0.13281h-7.1113l-1.1367 6.4531c-0.0223 0.13748-0.0676 0.25414-0.11133 0.36914-0.19127 0.48375-0.57438 0.76758-1.2031 0.76758h-3.3476c-0.3575 0-0.59547-0.10546-0.73047-0.29297-0.135-0.18624-0.16549-0.45445-0.10547-0.7832l4.2422-24.082c0.06-0.35875 0.19584-0.64219 0.41211-0.83594 0.21749-0.195 0.51554-0.29883 0.90429-0.29883h3.3457c0.7175 0 0.95593 0.41797 0.83593 1.0742l-1.0742 6.2148h6.9297c0.6875 0 1.2729-0.16375 1.7129-0.5 0.22001-0.16875 0.40508-0.37977 0.54883-0.63476 0.14499-0.25375 0.24861-0.55398 0.3086-0.89648l1.4941-8.5449-4.3027-4.4824h-13.562zm23.363 0-3.6758 20.916-3.6758 20.914h6.9316c1.3738 0 2.3303-0.6575 2.5703-2.0312l1.0606-6.0664 1.5078-8.6328h6.334l-2.9277 16.73h6.9336c1.3738 0 2.3296-0.6575 2.5684-2.0312l6.9922-39.799h-9.1445l-1.4922 8.5156-1.4942 8.5156h-6.334l2.9863-17.031h-9.1406zm-81.986 0.002-6.75 20.912-4.0996 12.695-2.6543 8.2207h7.4102c0.34373 0 0.64937-0.04056 0.92187-0.12305 0.5425-0.16501 0.94828-0.49383 1.2383-0.98633 0.14375-0.24626 0.25961-0.53258 0.34961-0.86133l1.5527-5.498h5.8574l-0.47852 7.4688h9.3828l0.95508-39.5c0-0.37375-0.0566-0.70539-0.16406-0.99414-0.1075-0.28875-0.2657-0.53172-0.4707-0.73047-0.20502-0.1975-0.45821-0.34992-0.75196-0.45117-0.29501-0.1025-0.63015-0.15234-1.0039-0.15234h-11.295zm5.5586 7.2285-1.2559 19.781h-4.3027l5.5586-19.781zm25.754 0.53906h5.3184c0.35876 0 0.59743 0.10476 0.73243 0.29102 0.13376 0.18625 0.1635 0.45445 0.10351 0.7832l-1.5527 8.9648c-0.12 0.717-0.54 1.134-1.32 1.134h-5.2578l1.9707-11.174zm-107.59 9.538c-2.4912 0-4.5044 1.7902-5.1406 3.6289l1.0371-3.6035-3.5605-0.01172-0.62891 2.2324 0.92188-0.0039-0.92773 3.2676-2.3301-5.4844h-3.3379l-0.62695 2.2207h0.91602l-2.0684 7.5352h2.668s1.028-3.7341 1.293-4.6953c0.375 0.90875 1.9414 4.6953 1.9414 4.6953l2.9688-0.002 1.3594-4.7832c-0.12001 0.7125-0.12694 1.4578-0.002 2.1953 0.26249 1.5675 1.7881 2.5898 3.4531 2.5898h5.3906l0.92383-1.4023h3.8027l0.07813 1.3867h3.3711l0.85742-1.3867h3.8887l0.15234 1.4023h2.3867l0.52734-1.0703-0.59961-8.6973h-5.3516l-0.63086 2.2324h0.83008l-2.6426 4.1914-0.37109-6.4238h-5.4277l-0.61914 2.2227 0.83008 0.0098-3.5469 5.3789-2.918-0.01172c-0.30625 0-1.4863-0.2829-1.4863-1.7441 0-1.4625 1.3929-3.584 2.8066-3.584l0.5918 0.01367c-0.09999 0.36-0.30859 1.1094-0.30859 1.1094h2.5996l0.93359-3.3945-4.0039-0.01367zm50.17 30.705-7.3496 41.83h6.0352c0.4575 0 0.84546-0.10057 1.1992-0.24805 0.70999-0.29625 1.2111-0.86695 1.3711-1.7832l4.8984-27.906-0.77539 29.937h7.709c0.3725 0 0.705-0.0412 1-0.125 0.8875-0.2525 1.4491-0.8918 1.8066-1.9668l9.2051-27.846-5.2598 29.937h6.0352c0.34374 0 0.66101-0.0406 0.94727-0.12305 0.5725-0.16625 1.0225-0.50172 1.3125-1.0117 0.14499-0.25501 0.25055-0.55398 0.31054-0.89648l6.9902-39.799h-13.146l-4.8711 14.73-4.8672 14.73 0.71485-27.43c0-0.6575-0.14874-1.1641-0.46875-1.5078-0.32252-0.3425-0.81571-0.52344-1.502-0.52344h-11.295zm44.996 0-6.752 20.916-6.7539 20.914h7.4102c0.0412 0 0.0707-0.0126 0.10938-0.0137 0.63-0.0188 1.1404-0.17049 1.5254-0.48047 0.41125-0.32875 0.69625-0.82102 0.875-1.4785l1.5547-5.4961h5.8555l-0.47656 7.4688h9.3809l0.19336-7.9707 0.76172-31.529c0-1.12-0.50226-1.8708-1.3848-2.1758-0.29501-0.10127-0.63211-0.1543-1.0059-0.1543h-11.293zm23.484 0-7.3516 41.83h19.541l2.957-2.2402 2.959-2.2422 3.1797-18.021 2.6172-14.844-4.3027-4.4824h-19.6zm30.234 0-7.3496 41.83h6.334c1.375 0 2.3316-0.65625 2.5703-2.0312l3.584-20.498 3.8867 20.498c0.11874 0.6575 0.38735 1.1641 0.77735 1.5078 0.3875 0.34374 0.89539 0.52344 1.4941 0.52344h6.6894l7.3516-41.83h-8.5449l-3.9453 22.588-4.3027-22.588h-8.5449zm30.953 0-3.6738 20.916-3.6758 20.914h18.645c0.45625 0 0.84547-0.10057 1.1992-0.24805 0.6675-0.27875 1.1373-0.81578 1.3223-1.6445 0.0113-0.0512 0.0381-0.0869 0.0469-0.14062l1.0156-5.7363h-11.711l0.83594-4.7793 0.83789-4.7812h6.5723c0.68625 0 1.2251-0.17774 1.6426-0.52148 0.41875-0.34374 0.71898-0.85227 0.92773-1.5098l1.8516-5.7363h-9.6211l1.2852-7.4102 0.26953-1.5527h9.2031c0.65499 0 1.2081-0.16251 1.6406-0.46875 0.47375-0.33498 0.80273-0.8457 0.92774-1.5645l0.72265-4.332 0.23438-1.4043h-20.498zm29.639 0-2.5488 1.9316-3.3672 2.5508-2.7461 15.596 4.3008 4.4219h10.158l-1.4941 8.4258c-0.0301 0.17876-0.0777 0.34049-0.14649 0.48047-0.20501 0.42-0.58547 0.6543-1.168 0.6543h-4.2402c-0.7175 0-0.95789-0.35797-0.83789-1.0742l0.47656-2.748c0.0613-0.34374 0.072-0.64344 0.0332-0.89844-0.11501-0.765-0.67382-1.1348-1.7051-1.1348h-7.1113l-1.6133 9.1426 4.3027 4.4824h14.461l2.957-2.2402 2.7363-2.0742 0.22265-0.16797 2.4336-13.686 0.43359-2.4473-4.3027-4.4824h-10.156l1.373-7.8281c0.12001-0.7175 0.53696-1.1348 1.3145-1.1348h3.6445c0.5375 0 0.80617 0.2339 0.85742 0.62891 0.0163 0.13124 0.0106 0.28154-0.0195 0.44531l-0.32813 1.9727-0.32812 1.9707h6.9297c1.375 0 2.3316-0.65625 2.5703-2.0312l1.0762-6.2734-2.8496-2.9688-1.4531-1.5137h-13.865zm29.102 0-2.5488 1.9316-3.3672 2.5508-2.748 15.596 4.3027 4.4219h10.158l-1.4941 8.4258c-0.0301 0.17876-0.0778 0.34049-0.14649 0.48047-0.20374 0.42-0.58547 0.6543-1.168 0.6543h-4.2422c-0.5375 0-0.80742-0.19978-0.85742-0.60352-0.0163-0.13376-0.0102-0.29196 0.0195-0.4707l0.47851-2.748c0.17876-1.0312-0.0788-1.6595-0.79883-1.9082-0.23998-0.08376-0.53054-0.125-0.87304-0.125h-7.1133l-1.6133 9.1426 4.3027 4.4824h14.461l5.916-4.4824 2.8691-16.135-4.3027-4.4824h-10.158l1.375-7.8262c0.0525-0.31248 0.17178-0.55539 0.34179-0.74414 0.0262-0.0287 0.0409-0.06682 0.0684-0.0918 0.21749-0.19375 0.5143-0.29883 0.9043-0.29883h3.6445c0.42375 0 0.66359 0.15978 0.77734 0.41602 0.0788 0.17624 0.10735 0.3907 0.0586 0.6582l-0.32813 1.9727-0.32812 1.9707h6.9316c1.375 0 2.3284-0.65625 2.5684-2.0312l1.0762-6.2734-0.16602-0.17383-4.1348-4.3086h-13.865zm20.717 4.793c-0.875 0-1.6152 0.67274-1.6152 1.584 0 0.92125 0.74023 1.5938 1.6152 1.5938 0.865 0 1.6055-0.6725 1.6055-1.5938 0-0.91125-0.74047-1.584-1.6055-1.584zm0 0.26367c0.7175 0 1.2871 0.56781 1.2871 1.3203 0 0.765-0.56961 1.3281-1.2871 1.3281-0.7275 0-1.2949-0.56312-1.2949-1.3281 0-0.7525 0.56742-1.3203 1.2949-1.3203zm-0.61523 0.41016v1.832h0.27734v-0.79492h0.32031l0.48242 0.79492h0.3125l-0.52148-0.80859c0.27-0.03366 0.47656-0.17515 0.47656-0.50391 0-0.36125-0.21664-0.51953-0.65039-0.51953h-0.69726zm0.27734 0.23438h0.37891c0.1925 0 0.40039 0.04202 0.40039 0.26953 0 0.28123-0.20905 0.29688-0.44532 0.29688h-0.33398v-0.56641zm-158.23 1.5293-1.2539 19.779h-4.3027l5.5566-19.779zm25.754 0.53906h5.3203c0.425 0 0.6636 0.15978 0.77735 0.41602 0.08 0.17624 0.10735 0.3907 0.0586 0.6582l-4.2422 24.082c-0.0301 0.17876-0.0777 0.34049-0.14648 0.48047-0.20502 0.42-0.58617 0.65625-1.1699 0.65625h-5.2578l4.6602-26.293z" transform="matrix(.28222 0 0 .28222 0 -.0000021532)" fill="#fff"/>
  <path d="m76.533 66.008-12.768 13.164h8.5879l12.818-13.164h-4.5098-4.1289zm14.527 0-12.773 13.164h9.0781l6.1992-6.3457 6.6602-6.8184h-6.834-2.3301zm113.04 48.422c-0.1125 0.005-0.21901 0.0195-0.33399 0.0195h-6.3203-2.7578l-7.3672 7.3691h1.5195 8.0938l7.166-7.3887zm21.832 0.002-7.2207 7.3848h19.117l7.1641-7.3848h-16.59-1.8008-0.66992zm-130.9 0.01-7.3848 7.3848h2.1602 6.2363l7.3203-7.3848h-4.6309-3.7012zm13.131 0-7.3848 7.3848h3.4316 6.5996l7.3223-7.3848h-6.6699-3.2988zm14.768 0-7.3848 7.3848h1.4512 5.6172 1.0703l7.3203-7.3848h-5.082-2.9922zm13.062 0-7.3848 7.3848h1.416 6.9121l7.3223-7.3848h-6.6856-1.5801zm14.768 0-7.3828 7.3848h5.4688 3.4062 1.7227l7.3223-7.3848h-6.8711-3.666zm14.768 0-7.3848 7.3848h13.65 4.1445l7.3203-7.3848h-15.016-1.0293-1.6856zm47.557 0-7.3848 7.3848h1.8027 6.2363l7.3223-7.3848h-4.6328-3.3438zm42.758 0-7.2227 7.3848h8.5625 3.1738l7.1641-7.3848h-9.8379-1.8398zm28.775 0-7.2227 7.3848h8.5625 3.1738l7.1621-7.3848h-9.8359-1.8398z" transform="matrix(.28222 0 0 .28222 0 -.0000021532)" fill="#707a84"/>
  <path d="m19.748 12.24 0.58244-0.8823 0.02928 0.8823zm-2.335 0.01199 0.58349-0.88547 0.03104 0.88547z" fill="#005eb8"/>
 </g>
</svg>
